<mxfile host="app.diagrams.net" modified="2024-05-13T03:14:33.808Z" agent="Mozilla/5.0 (Windows NT 10.0; Win64; x64) AppleWebKit/537.36 (KHTML, like Gecko) Chrome/122.0.0.0 Safari/537.36" etag="kHbGROqDiYJClt2q5b8T" version="24.4.0" type="github">
  <diagram name="第 1 页" id="-VzsPuUUQcejt9MmMa4l">
    <mxGraphModel dx="2062" dy="614" grid="1" gridSize="10" guides="1" tooltips="1" connect="1" arrows="1" fold="1" page="1" pageScale="1" pageWidth="827" pageHeight="1169" math="0" shadow="0">
      <root>
        <mxCell id="0" />
        <mxCell id="1" parent="0" />
        <mxCell id="fO_N5nvjvQ9dlrAEkSXq-3" value="&lt;span style=&quot;font-family: &amp;quot;Times New Roman&amp;quot;; font-size: 16px;&quot;&gt;用户提问&lt;/span&gt;" style="swimlane;fontStyle=0;childLayout=stackLayout;horizontal=1;startSize=30;horizontalStack=0;resizeParent=1;resizeParentMax=0;resizeLast=0;collapsible=1;marginBottom=0;whiteSpace=wrap;html=1;strokeWidth=2;fillColor=#ffe6cc;strokeColor=#d79b00;" vertex="1" parent="1">
          <mxGeometry x="-20" y="120" width="170" height="120" as="geometry">
            <mxRectangle x="260" y="160" width="100" height="30" as="alternateBounds" />
          </mxGeometry>
        </mxCell>
        <mxCell id="fO_N5nvjvQ9dlrAEkSXq-5" value="&lt;span style=&quot;font-family: &amp;quot;Times New Roman&amp;quot;; font-size: 16px; text-align: center;&quot;&gt;艾丛芳教授可能与哪些学者有较为密切的合作关系？&lt;/span&gt;" style="text;strokeColor=none;fillColor=none;align=left;verticalAlign=middle;spacingLeft=4;spacingRight=4;overflow=hidden;points=[[0,0.5],[1,0.5]];portConstraint=eastwest;rotatable=0;whiteSpace=wrap;html=1;fontFamily=Helvetica;fontSize=12;fontColor=default;" vertex="1" parent="fO_N5nvjvQ9dlrAEkSXq-3">
          <mxGeometry y="30" width="170" height="90" as="geometry" />
        </mxCell>
        <mxCell id="fO_N5nvjvQ9dlrAEkSXq-7" value="" style="endArrow=classic;html=1;rounded=0;exitX=0.994;exitY=-0.01;exitDx=0;exitDy=0;exitPerimeter=0;" edge="1" parent="1" source="fO_N5nvjvQ9dlrAEkSXq-5">
          <mxGeometry width="50" height="50" relative="1" as="geometry">
            <mxPoint x="170" y="140" as="sourcePoint" />
            <mxPoint x="200" y="150" as="targetPoint" />
          </mxGeometry>
        </mxCell>
        <mxCell id="fO_N5nvjvQ9dlrAEkSXq-8" value="&lt;font face=&quot;Times New Roman&quot;&gt;&lt;span style=&quot;font-size: 16px;&quot;&gt;用户选择&lt;/span&gt;&lt;/font&gt;" style="swimlane;fontStyle=0;childLayout=stackLayout;horizontal=1;startSize=30;horizontalStack=0;resizeParent=1;resizeParentMax=0;resizeLast=0;collapsible=1;marginBottom=0;whiteSpace=wrap;html=1;strokeWidth=2;fillColor=#ffe6cc;strokeColor=#d79b00;" vertex="1" parent="1">
          <mxGeometry x="200" y="120" width="140" height="70" as="geometry">
            <mxRectangle x="260" y="160" width="100" height="30" as="alternateBounds" />
          </mxGeometry>
        </mxCell>
        <mxCell id="fO_N5nvjvQ9dlrAEkSXq-9" value="&lt;div style=&quot;&quot;&gt;&lt;span style=&quot;background-color: initial; font-size: 16px;&quot;&gt;&lt;font face=&quot;Times New Roman&quot;&gt;GPT-3.5模型&lt;/font&gt;&lt;/span&gt;&lt;/div&gt;" style="text;strokeColor=none;fillColor=none;align=center;verticalAlign=middle;spacingLeft=4;spacingRight=4;overflow=hidden;points=[[0,0.5],[1,0.5]];portConstraint=eastwest;rotatable=0;whiteSpace=wrap;html=1;fontFamily=Helvetica;fontSize=12;fontColor=default;" vertex="1" parent="fO_N5nvjvQ9dlrAEkSXq-8">
          <mxGeometry y="30" width="140" height="40" as="geometry" />
        </mxCell>
        <mxCell id="fO_N5nvjvQ9dlrAEkSXq-12" value="" style="endArrow=classic;html=1;rounded=0;entryX=0.006;entryY=0.01;entryDx=0;entryDy=0;entryPerimeter=0;" edge="1" parent="1">
          <mxGeometry width="50" height="50" relative="1" as="geometry">
            <mxPoint x="340" y="150" as="sourcePoint" />
            <mxPoint x="382.4000000000001" y="150.79999999999995" as="targetPoint" />
          </mxGeometry>
        </mxCell>
        <mxCell id="fO_N5nvjvQ9dlrAEkSXq-13" value="&lt;span style=&quot;font-family: &amp;quot;Times New Roman&amp;quot;; font-size: 16px;&quot;&gt;生成cypher命令&lt;/span&gt;" style="swimlane;fontStyle=0;childLayout=stackLayout;horizontal=1;startSize=30;horizontalStack=0;resizeParent=1;resizeParentMax=0;resizeLast=0;collapsible=1;marginBottom=0;whiteSpace=wrap;html=1;align=center;verticalAlign=middle;spacingLeft=4;spacingRight=4;fontFamily=Helvetica;fontSize=12;fontColor=default;fillColor=#dae8fc;gradientColor=none;strokeColor=#6c8ebf;strokeWidth=2;" vertex="1" parent="1">
          <mxGeometry x="380" y="120" width="290" height="140" as="geometry" />
        </mxCell>
        <mxCell id="fO_N5nvjvQ9dlrAEkSXq-14" value="&lt;div style=&quot;font-size: 15px;&quot;&gt;&lt;span style=&quot;background-color: initial;&quot;&gt;&lt;font face=&quot;Times New Roman&quot; style=&quot;font-size: 15px;&quot;&gt;MATCH (t:Teacher {name: &#39;艾丛芳教授&#39;})&lt;/font&gt;&lt;/span&gt;&lt;/div&gt;&lt;div style=&quot;font-size: 15px;&quot;&gt;&lt;span style=&quot;background-color: initial;&quot;&gt;&lt;font face=&quot;Times New Roman&quot;&gt;&lt;font style=&quot;font-size: 15px;&quot;&gt;RETURN&amp;nbsp; t&lt;/font&gt;&lt;font style=&quot;font-size: 15px;&quot;&gt;.profile, t.personal_inf&lt;/font&gt;&lt;font style=&quot;font-size: 15px;&quot;&gt;o&lt;/font&gt;&lt;/font&gt;&lt;/span&gt;&lt;/div&gt;" style="text;strokeColor=none;fillColor=none;align=left;verticalAlign=middle;spacingLeft=4;spacingRight=4;overflow=hidden;points=[[0,0.5],[1,0.5]];portConstraint=eastwest;rotatable=0;whiteSpace=wrap;html=1;fontFamily=Helvetica;fontSize=12;fontColor=default;fontStyle=0;" vertex="1" parent="fO_N5nvjvQ9dlrAEkSXq-13">
          <mxGeometry y="30" width="290" height="50" as="geometry" />
        </mxCell>
        <mxCell id="fO_N5nvjvQ9dlrAEkSXq-16" value="&lt;font face=&quot;Times New Roman&quot; style=&quot;font-size: 15px;&quot;&gt;MATCH (t:Teacher {name: &#39;艾丛芳教授&#39;})-[:COLLABORATED_WITH]-(other:Teacher)&lt;/font&gt;&lt;div&gt;&lt;font face=&quot;Times New Roman&quot; style=&quot;font-size: 15px;&quot;&gt;RETURN other.name&lt;/font&gt;&lt;/div&gt;" style="text;strokeColor=none;fillColor=none;align=left;verticalAlign=middle;spacingLeft=4;spacingRight=4;overflow=hidden;points=[[0,0.5],[1,0.5]];portConstraint=eastwest;rotatable=0;whiteSpace=wrap;html=1;fontFamily=Helvetica;fontSize=12;fontColor=default;fontStyle=0;" vertex="1" parent="fO_N5nvjvQ9dlrAEkSXq-13">
          <mxGeometry y="80" width="290" height="60" as="geometry" />
        </mxCell>
        <mxCell id="fO_N5nvjvQ9dlrAEkSXq-17" value="&lt;span style=&quot;font-family: &amp;quot;Times New Roman&amp;quot;; font-size: 16px;&quot;&gt;优化cypher命令&lt;/span&gt;" style="swimlane;fontStyle=0;childLayout=stackLayout;horizontal=1;startSize=30;horizontalStack=0;resizeParent=1;resizeParentMax=0;resizeLast=0;collapsible=1;marginBottom=0;whiteSpace=wrap;html=1;align=center;verticalAlign=middle;spacingLeft=4;spacingRight=4;fontFamily=Helvetica;fontSize=12;fillColor=#d5e8d4;strokeColor=#82b366;strokeWidth=2;" vertex="1" parent="1">
          <mxGeometry x="710" y="120" width="290" height="140" as="geometry" />
        </mxCell>
        <mxCell id="fO_N5nvjvQ9dlrAEkSXq-18" value="&lt;div style=&quot;font-size: 15px;&quot;&gt;&lt;span style=&quot;background-color: initial;&quot;&gt;&lt;font face=&quot;Times New Roman&quot; style=&quot;font-size: 15px;&quot;&gt;MATCH (t:Teacher {name: &#39;艾丛芳&#39;})&lt;/font&gt;&lt;/span&gt;&lt;/div&gt;&lt;div style=&quot;font-size: 15px;&quot;&gt;&lt;span style=&quot;background-color: initial;&quot;&gt;&lt;font face=&quot;Times New Roman&quot;&gt;&lt;font style=&quot;font-size: 15px;&quot;&gt;RETURN&amp;nbsp; t&lt;/font&gt;&lt;font style=&quot;font-size: 15px;&quot;&gt;.profile, t.personal_inf&lt;/font&gt;&lt;font style=&quot;font-size: 15px;&quot;&gt;o&lt;/font&gt;&lt;/font&gt;&lt;/span&gt;&lt;/div&gt;" style="text;strokeColor=none;fillColor=none;align=left;verticalAlign=middle;spacingLeft=4;spacingRight=4;overflow=hidden;points=[[0,0.5],[1,0.5]];portConstraint=eastwest;rotatable=0;whiteSpace=wrap;html=1;fontFamily=Helvetica;fontSize=12;fontColor=default;fontStyle=0;" vertex="1" parent="fO_N5nvjvQ9dlrAEkSXq-17">
          <mxGeometry y="30" width="290" height="50" as="geometry" />
        </mxCell>
        <mxCell id="fO_N5nvjvQ9dlrAEkSXq-19" value="&lt;font face=&quot;Times New Roman&quot; style=&quot;&quot;&gt;&lt;span style=&quot;font-size: 15px;&quot;&gt;MATCH (t:Teacher {name: &#39;艾丛芳&#39;})-[:COLLABORATED_WITH|SUPERVISES]-(other:Person|Teacher)\nRETURN other.name&lt;/span&gt;&lt;br&gt;&lt;/font&gt;" style="text;strokeColor=none;fillColor=none;align=left;verticalAlign=middle;spacingLeft=4;spacingRight=4;overflow=hidden;points=[[0,0.5],[1,0.5]];portConstraint=eastwest;rotatable=0;whiteSpace=wrap;html=1;fontFamily=Helvetica;fontSize=12;fontColor=default;fontStyle=0;" vertex="1" parent="fO_N5nvjvQ9dlrAEkSXq-17">
          <mxGeometry y="80" width="290" height="60" as="geometry" />
        </mxCell>
        <mxCell id="fO_N5nvjvQ9dlrAEkSXq-20" value="" style="endArrow=classic;html=1;rounded=0;exitX=1.003;exitY=0.007;exitDx=0;exitDy=0;exitPerimeter=0;entryX=0.001;entryY=0.002;entryDx=0;entryDy=0;entryPerimeter=0;" edge="1" parent="1" source="fO_N5nvjvQ9dlrAEkSXq-14" target="fO_N5nvjvQ9dlrAEkSXq-18">
          <mxGeometry width="50" height="50" relative="1" as="geometry">
            <mxPoint x="670" y="130" as="sourcePoint" />
            <mxPoint x="710" y="132.39999999999998" as="targetPoint" />
          </mxGeometry>
        </mxCell>
        <mxCell id="fO_N5nvjvQ9dlrAEkSXq-21" value="&lt;font face=&quot;Times New Roman&quot;&gt;&lt;span style=&quot;font-size: 16px;&quot;&gt;查询执行&lt;/span&gt;&lt;/font&gt;" style="swimlane;fontStyle=0;childLayout=stackLayout;horizontal=1;startSize=30;horizontalStack=0;resizeParent=1;resizeParentMax=0;resizeLast=0;collapsible=1;marginBottom=0;whiteSpace=wrap;html=1;align=center;verticalAlign=middle;spacingLeft=4;spacingRight=4;fontFamily=Helvetica;fontSize=12;fillColor=#e1d5e7;strokeColor=#9673a6;strokeWidth=2;" vertex="1" parent="1">
          <mxGeometry x="710" y="300" width="290" height="130" as="geometry" />
        </mxCell>
        <mxCell id="fO_N5nvjvQ9dlrAEkSXq-22" value="&lt;div style=&quot;&quot;&gt;&lt;div style=&quot;&quot;&gt;&lt;span style=&quot;font-size: 15px; background-color: initial;&quot;&gt;result1：&lt;/span&gt;&lt;span style=&quot;background-color: initial; font-size: 15px;&quot;&gt;[{&#39;t.profile&#39;: ...},{&#39;&lt;/span&gt;&lt;font style=&quot;background-color: initial; font-family: &amp;quot;Times New Roman&amp;quot;; font-size: 15px;&quot;&gt;t.personal_inf&lt;/font&gt;&lt;font style=&quot;background-color: initial; font-family: &amp;quot;Times New Roman&amp;quot;; font-size: 15px;&quot;&gt;o&lt;/font&gt;&lt;span style=&quot;background-color: initial; font-size: 15px;&quot;&gt;&#39;:..}&lt;/span&gt;&lt;/div&gt;&lt;/div&gt;" style="text;strokeColor=none;fillColor=none;align=left;verticalAlign=middle;spacingLeft=4;spacingRight=4;overflow=hidden;points=[[0,0.5],[1,0.5]];portConstraint=eastwest;rotatable=0;whiteSpace=wrap;html=1;fontFamily=Helvetica;fontSize=12;fontColor=default;fontStyle=0;" vertex="1" parent="fO_N5nvjvQ9dlrAEkSXq-21">
          <mxGeometry y="30" width="290" height="40" as="geometry" />
        </mxCell>
        <mxCell id="fO_N5nvjvQ9dlrAEkSXq-23" value="&lt;font face=&quot;Times New Roman&quot;&gt;&lt;span style=&quot;font-size: 15px;&quot;&gt;&lt;div&gt;&lt;span style=&quot;background-color: initial;&quot;&gt;result2：[ {&#39;other.name&#39;: &#39;王昆&#39;}, {&#39;other.&lt;/span&gt;&lt;span style=&quot;background-color: initial;&quot;&gt;na&lt;/span&gt;&lt;span style=&quot;background-color: initial;&quot;&gt;me&lt;/span&gt;&lt;/div&gt;&lt;div&gt;&lt;span style=&quot;background-color: initial;&quot;&gt;&#39;:&lt;/span&gt;&lt;span style=&quot;background-color: initial;&quot;&gt;&amp;nbsp;&#39;刘亚坤&#39;}, {&#39;other.name&#39;: &#39;于洋&#39;}, ...]&lt;/span&gt;&lt;/div&gt;&lt;/span&gt;&lt;/font&gt;" style="text;strokeColor=none;fillColor=none;align=left;verticalAlign=middle;spacingLeft=4;spacingRight=4;overflow=hidden;points=[[0,0.5],[1,0.5]];portConstraint=eastwest;rotatable=0;whiteSpace=wrap;html=1;fontFamily=Helvetica;fontSize=12;fontColor=default;fontStyle=0;" vertex="1" parent="fO_N5nvjvQ9dlrAEkSXq-21">
          <mxGeometry y="70" width="290" height="60" as="geometry" />
        </mxCell>
        <mxCell id="fO_N5nvjvQ9dlrAEkSXq-27" value="&lt;font face=&quot;Times New Roman&quot;&gt;&lt;span style=&quot;font-size: 16px;&quot;&gt;数据清洗&lt;/span&gt;&lt;/font&gt;" style="swimlane;fontStyle=0;childLayout=stackLayout;horizontal=1;startSize=30;horizontalStack=0;resizeParent=1;resizeParentMax=0;resizeLast=0;collapsible=1;marginBottom=0;whiteSpace=wrap;html=1;align=center;verticalAlign=middle;spacingLeft=4;spacingRight=4;fontFamily=Helvetica;fontSize=12;fillColor=#d5e8d4;strokeColor=#82b366;strokeWidth=2;" vertex="1" parent="1">
          <mxGeometry x="710" y="470" width="290" height="130" as="geometry" />
        </mxCell>
        <mxCell id="fO_N5nvjvQ9dlrAEkSXq-28" value="&lt;div style=&quot;&quot;&gt;&lt;div style=&quot;&quot;&gt;&lt;span style=&quot;font-size: 15px; background-color: initial;&quot;&gt;result1：&lt;/span&gt;&lt;span style=&quot;background-color: initial; font-size: 15px;&quot;&gt;[{&#39;t.profile&#39;: ...},{&#39;&lt;/span&gt;&lt;font style=&quot;background-color: initial; font-family: &amp;quot;Times New Roman&amp;quot;; font-size: 15px;&quot;&gt;t.personal_inf&lt;/font&gt;&lt;font style=&quot;background-color: initial; font-family: &amp;quot;Times New Roman&amp;quot;; font-size: 15px;&quot;&gt;o&lt;/font&gt;&lt;span style=&quot;background-color: initial; font-size: 15px;&quot;&gt;&#39;:..}&lt;/span&gt;&lt;/div&gt;&lt;/div&gt;" style="text;strokeColor=none;fillColor=none;align=left;verticalAlign=middle;spacingLeft=4;spacingRight=4;overflow=hidden;points=[[0,0.5],[1,0.5]];portConstraint=eastwest;rotatable=0;whiteSpace=wrap;html=1;fontFamily=Helvetica;fontSize=12;fontColor=default;fontStyle=0;" vertex="1" parent="fO_N5nvjvQ9dlrAEkSXq-27">
          <mxGeometry y="30" width="290" height="30" as="geometry" />
        </mxCell>
        <mxCell id="fO_N5nvjvQ9dlrAEkSXq-29" value="&lt;font face=&quot;Times New Roman&quot;&gt;&lt;div style=&quot;&quot;&gt;&lt;span style=&quot;font-size: 15px; background-color: initial;&quot;&gt;result2：[ {&#39;other.name&#39;: &#39;王昆&#39;,&lt;/span&gt;&lt;span style=&quot;background-color: initial; font-size: 15px;&quot;&gt;&#39;出现次数&#39;:3&lt;/span&gt;&lt;span style=&quot;font-size: 15px; background-color: initial;&quot;&gt;}, {&#39;other.&lt;/span&gt;&lt;span style=&quot;font-size: 15px; background-color: initial;&quot;&gt;na&lt;/span&gt;&lt;span style=&quot;font-size: 15px; background-color: initial;&quot;&gt;me&lt;/span&gt;&lt;span style=&quot;background-color: initial; font-size: 15px;&quot;&gt;&#39;:&lt;/span&gt;&lt;span style=&quot;background-color: initial; font-size: 15px;&quot;&gt;&amp;nbsp;&#39;刘亚坤&#39;&lt;/span&gt;&lt;span style=&quot;background-color: initial; font-size: 15px;&quot;&gt;&#39;出现次数&#39;: 4&lt;/span&gt;&lt;span style=&quot;background-color: initial; font-size: 15px;&quot;&gt;},{&#39;other.&lt;/span&gt;&lt;/div&gt;&lt;div style=&quot;&quot;&gt;&lt;span style=&quot;background-color: initial; font-size: 15px;&quot;&gt;name&#39;: &#39;于洋&#39;,&lt;/span&gt;&lt;span style=&quot;background-color: initial; font-size: 15px;&quot;&gt;&#39;出现次数&#39;: 3&lt;/span&gt;&lt;span style=&quot;background-color: initial; font-size: 15px;&quot;&gt;}, ...]&lt;/span&gt;&lt;/div&gt;&lt;/font&gt;" style="text;strokeColor=none;fillColor=none;align=left;verticalAlign=middle;spacingLeft=4;spacingRight=4;overflow=hidden;points=[[0,0.5],[1,0.5]];portConstraint=eastwest;rotatable=0;whiteSpace=wrap;html=1;fontFamily=Helvetica;fontSize=12;fontColor=default;fontStyle=0;" vertex="1" parent="fO_N5nvjvQ9dlrAEkSXq-27">
          <mxGeometry y="60" width="290" height="70" as="geometry" />
        </mxCell>
        <mxCell id="fO_N5nvjvQ9dlrAEkSXq-30" value="" style="endArrow=classic;html=1;rounded=0;exitX=0.5;exitY=1;exitDx=0;exitDy=0;" edge="1" parent="1" source="fO_N5nvjvQ9dlrAEkSXq-17" target="fO_N5nvjvQ9dlrAEkSXq-21">
          <mxGeometry width="50" height="50" relative="1" as="geometry">
            <mxPoint x="690" y="370" as="sourcePoint" />
            <mxPoint x="740" y="320" as="targetPoint" />
          </mxGeometry>
        </mxCell>
        <mxCell id="fO_N5nvjvQ9dlrAEkSXq-32" value="" style="endArrow=classic;html=1;rounded=0;exitX=0.501;exitY=1;exitDx=0;exitDy=0;exitPerimeter=0;entryX=0.501;entryY=0.015;entryDx=0;entryDy=0;entryPerimeter=0;" edge="1" parent="1" source="fO_N5nvjvQ9dlrAEkSXq-23" target="fO_N5nvjvQ9dlrAEkSXq-27">
          <mxGeometry width="50" height="50" relative="1" as="geometry">
            <mxPoint x="860" y="440" as="sourcePoint" />
            <mxPoint x="890" y="460" as="targetPoint" />
          </mxGeometry>
        </mxCell>
        <mxCell id="fO_N5nvjvQ9dlrAEkSXq-33" value="&lt;font face=&quot;Times New Roman&quot;&gt;&lt;span style=&quot;font-size: 16px;&quot;&gt;答案整合，形成输入提示&lt;/span&gt;&lt;/font&gt;" style="swimlane;fontStyle=0;childLayout=stackLayout;horizontal=1;startSize=30;horizontalStack=0;resizeParent=1;resizeParentMax=0;resizeLast=0;collapsible=1;marginBottom=0;whiteSpace=wrap;html=1;align=center;verticalAlign=middle;spacingLeft=4;spacingRight=4;fontFamily=Helvetica;fontSize=12;fillColor=#d5e8d4;strokeColor=#82b366;strokeWidth=2;" vertex="1" parent="1">
          <mxGeometry x="380" y="470" width="290" height="130" as="geometry" />
        </mxCell>
        <mxCell id="fO_N5nvjvQ9dlrAEkSXq-35" value="&lt;font style=&quot;font-size: 15px;&quot; face=&quot;Times New Roman&quot;&gt;&lt;div style=&quot;&quot;&gt;&lt;div&gt;你是一个高校师资问答系统，请根据已知的查询结果直接回答用户问题：&lt;/div&gt;&lt;div&gt;&#39;&#39;&#39;艾丛芳教授可能与哪些学者有较为密切的合作关系？&#39;&#39;&#39;&lt;/div&gt;&lt;div&gt;查询命令与结果：&#39;&#39;&#39;&amp;nbsp; ... &#39;&#39;&#39;&amp;nbsp;&lt;/div&gt;&lt;/div&gt;&lt;/font&gt;" style="text;strokeColor=none;fillColor=none;align=left;verticalAlign=middle;spacingLeft=4;spacingRight=4;overflow=hidden;points=[[0,0.5],[1,0.5]];portConstraint=eastwest;rotatable=0;whiteSpace=wrap;html=1;fontFamily=Helvetica;fontSize=12;fontColor=default;fontStyle=0;" vertex="1" parent="fO_N5nvjvQ9dlrAEkSXq-33">
          <mxGeometry y="30" width="290" height="100" as="geometry" />
        </mxCell>
        <mxCell id="fO_N5nvjvQ9dlrAEkSXq-36" value="" style="endArrow=classic;html=1;rounded=0;entryX=0.999;entryY=0.003;entryDx=0;entryDy=0;entryPerimeter=0;exitX=-0.005;exitY=0.04;exitDx=0;exitDy=0;exitPerimeter=0;" edge="1" parent="1" source="fO_N5nvjvQ9dlrAEkSXq-28" target="fO_N5nvjvQ9dlrAEkSXq-35">
          <mxGeometry width="50" height="50" relative="1" as="geometry">
            <mxPoint x="720" y="510" as="sourcePoint" />
            <mxPoint x="1020" y="520" as="targetPoint" />
          </mxGeometry>
        </mxCell>
        <mxCell id="fO_N5nvjvQ9dlrAEkSXq-37" value="&lt;font face=&quot;Times New Roman&quot;&gt;&lt;span style=&quot;font-size: 16px;&quot;&gt;判断是否分割&lt;/span&gt;&lt;/font&gt;" style="swimlane;fontStyle=0;childLayout=stackLayout;horizontal=1;startSize=30;horizontalStack=0;resizeParent=1;resizeParentMax=0;resizeLast=0;collapsible=1;marginBottom=0;whiteSpace=wrap;html=1;align=center;verticalAlign=middle;spacingLeft=4;spacingRight=4;fontFamily=Helvetica;fontSize=12;fillColor=#d5e8d4;strokeColor=#82b366;strokeWidth=2;" vertex="1" parent="1">
          <mxGeometry x="200" y="470" width="130" height="130" as="geometry" />
        </mxCell>
        <mxCell id="fO_N5nvjvQ9dlrAEkSXq-38" value="&lt;font style=&quot;&quot; face=&quot;Times New Roman&quot;&gt;&lt;div style=&quot;text-align: center;&quot;&gt;&lt;span style=&quot;font-size: 15px;&quot;&gt;字符总长度2562小于模型输入长度最值，&lt;/span&gt;&lt;span style=&quot;font-size: 15px; background-color: initial;&quot;&gt;不分割&lt;/span&gt;&lt;/div&gt;&lt;/font&gt;" style="text;strokeColor=none;fillColor=none;align=left;verticalAlign=middle;spacingLeft=4;spacingRight=4;overflow=hidden;points=[[0,0.5],[1,0.5]];portConstraint=eastwest;rotatable=0;whiteSpace=wrap;html=1;fontFamily=Helvetica;fontSize=12;fontColor=default;fontStyle=0;" vertex="1" parent="fO_N5nvjvQ9dlrAEkSXq-37">
          <mxGeometry y="30" width="130" height="100" as="geometry" />
        </mxCell>
        <mxCell id="fO_N5nvjvQ9dlrAEkSXq-39" value="" style="endArrow=classic;html=1;rounded=0;entryX=0.999;entryY=0.002;entryDx=0;entryDy=0;entryPerimeter=0;exitX=-0.002;exitY=0.004;exitDx=0;exitDy=0;exitPerimeter=0;" edge="1" parent="1" source="fO_N5nvjvQ9dlrAEkSXq-35" target="fO_N5nvjvQ9dlrAEkSXq-38">
          <mxGeometry width="50" height="50" relative="1" as="geometry">
            <mxPoint x="720" y="510" as="sourcePoint" />
            <mxPoint x="680" y="510" as="targetPoint" />
          </mxGeometry>
        </mxCell>
        <mxCell id="fO_N5nvjvQ9dlrAEkSXq-40" value="&lt;font face=&quot;Times New Roman&quot;&gt;&lt;span style=&quot;font-size: 16px;&quot;&gt;输入大模型，得到回答&lt;/span&gt;&lt;/font&gt;" style="swimlane;fontStyle=0;childLayout=stackLayout;horizontal=1;startSize=30;horizontalStack=0;resizeParent=1;resizeParentMax=0;resizeLast=0;collapsible=1;marginBottom=0;whiteSpace=wrap;html=1;align=center;verticalAlign=middle;spacingLeft=4;spacingRight=4;fontFamily=Helvetica;fontSize=12;fontColor=default;fillColor=#dae8fc;gradientColor=none;strokeColor=#6c8ebf;strokeWidth=2;" vertex="1" parent="1">
          <mxGeometry x="-20" y="470" width="170" height="130" as="geometry" />
        </mxCell>
        <mxCell id="fO_N5nvjvQ9dlrAEkSXq-42" value="&lt;font face=&quot;Times New Roman&quot;&gt;&lt;span style=&quot;font-size: 15px;&quot;&gt;“根据查询结果，艾丛芳教授可能与以下学者有较为密切的合作关系：王昆、刘亚坤、于洋...”&lt;/span&gt;&lt;/font&gt;" style="text;strokeColor=none;fillColor=none;align=left;verticalAlign=middle;spacingLeft=4;spacingRight=4;overflow=hidden;points=[[0,0.5],[1,0.5]];portConstraint=eastwest;rotatable=0;whiteSpace=wrap;html=1;fontFamily=Helvetica;fontSize=12;fontColor=default;fontStyle=0;" vertex="1" parent="fO_N5nvjvQ9dlrAEkSXq-40">
          <mxGeometry y="30" width="170" height="100" as="geometry" />
        </mxCell>
        <mxCell id="fO_N5nvjvQ9dlrAEkSXq-43" value="" style="endArrow=classic;html=1;rounded=0;entryX=0.996;entryY=0.006;entryDx=0;entryDy=0;entryPerimeter=0;exitX=0.01;exitY=0.005;exitDx=0;exitDy=0;exitPerimeter=0;" edge="1" parent="1" source="fO_N5nvjvQ9dlrAEkSXq-38" target="fO_N5nvjvQ9dlrAEkSXq-42">
          <mxGeometry width="50" height="50" relative="1" as="geometry">
            <mxPoint x="40" y="500" as="sourcePoint" />
            <mxPoint x="340" y="510" as="targetPoint" />
          </mxGeometry>
        </mxCell>
      </root>
    </mxGraphModel>
  </diagram>
</mxfile>
